<svg width="70" height="70" fill="none" xmlns="http://www.w3.org/2000/svg"><g clip-path="url(#clip0)"><path d="M67.42 11.661l-4.2-4.88a11.301 11.301 0 00-8.574-3.933h-4.522c-1.906 0-3.744.494-5.377 1.435A9.465 9.465 0 0038.36 1.8h-6.72a9.46 9.46 0 00-6.386 2.483 10.729 10.729 0 00-5.378-1.435h-4.521A11.301 11.301 0 006.78 6.782l-4.2 4.88a10.666 10.666 0 00-2.573 7.353 10.669 10.669 0 003.128 7.188 10.708 10.708 0 007.276 3.129c1.774 3.645 5.53 6.033 9.632 6.033.615 0 1.224-.054 1.823-.157a17.295 17.295 0 00-2.986 9.48 17.349 17.349 0 001.582 7.551 2.543 2.543 0 002.877 1.436 2.553 2.553 0 002.02-2.515 14.72 14.72 0 012.833-8.73 8.6 8.6 0 00.39.845c.442.832.676 1.77.676 2.712v16.471a5.749 5.749 0 005.743 5.742 5.749 5.749 0 005.742-5.742v-16.47a5.8 5.8 0 01.676-2.713 8.6 8.6 0 00.39-.845 14.72 14.72 0 012.834 8.73 2.553 2.553 0 002.02 2.515 2.543 2.543 0 002.877-1.436 17.345 17.345 0 001.58-7.552 17.295 17.295 0 00-2.985-9.479c.599.103 1.207.157 1.823.157 4.102 0 7.858-2.388 9.632-6.033.307-.009.615-.03.92-.065a1.367 1.367 0 00-.308-2.717 8.089 8.089 0 01-1.417.035c-.6-.038-1.154.32-1.366.883a8.011 8.011 0 01-7.46 5.162 7.96 7.96 0 01-2.282-.333l-.894-3.205a5.961 5.961 0 01.176-3.712l1.723-4.487a13.371 13.371 0 00-.254-10.264l-1.41-3.191a9.408 9.408 0 00-.516-.998 8.016 8.016 0 013.622-.858h4.522a8.57 8.57 0 016.502 2.983l4.199 4.88a7.99 7.99 0 011.868 6.095 1.367 1.367 0 102.717.308 10.734 10.734 0 00-2.512-8.187zM12.582 27.468a1.367 1.367 0 00-1.366-.883 7.979 7.979 0 01-6.147-2.316c-2.931-2.93-3.113-7.685-.415-10.824l4.199-4.88a8.57 8.57 0 016.502-2.983h4.521c1.273 0 2.505.294 3.623.858-.19.32-.362.652-.515.998l-1.41 3.191a13.372 13.372 0 00-.255 10.264l1.723 4.487a5.958 5.958 0 01.176 3.712l-.894 3.205a7.96 7.96 0 01-2.281.333 8.01 8.01 0 01-7.46-5.162zM22.64 50.38a14.645 14.645 0 01-1.026-5.652c.04-2.632.773-5.157 2.13-7.388l2.631 2.926.015.015a17.433 17.433 0 00-3.75 10.099zm24.72 0a17.43 17.43 0 00-3.75-10.099l.015-.015 2.631-2.926a14.57 14.57 0 012.13 7.388c.03 1.96-.314 3.857-1.025 5.652zm-1.23-30.467l-1.724 4.486a8.711 8.711 0 00-.257 5.427l1.227 4.402-2.961 3.295V35a1.367 1.367 0 00-2.735 0v3.121H36.3a1.367 1.367 0 000 2.735h3.158a5.766 5.766 0 01-.454 1.135 8.513 8.513 0 00-.65 1.6H36.3a1.367 1.367 0 000 2.734h1.71v2.734H36.3a1.367 1.367 0 000 2.735h1.71v2.734H36.3a1.367 1.367 0 000 2.734h1.71v2.735H36.3a1.367 1.367 0 000 2.734h1.696A3.012 3.012 0 0135 65.466a3.011 3.011 0 01-3.008-3.008v-16.47c0-1.389-.344-2.77-.995-3.997a5.799 5.799 0 01-.677-2.712v-4.28a1.367 1.367 0 00-2.734 0v2.524l-2.962-3.294 1.228-4.402a8.712 8.712 0 00-.258-5.427l-1.723-4.487a10.653 10.653 0 01.203-8.178l1.41-3.191a6.734 6.734 0 016.156-4.01h6.72a6.734 6.734 0 016.156 4.01l1.41 3.191a10.652 10.652 0 01.203 8.178z" fill="url(#paint0_linear)"/><path d="M65.9 23.868c-.36 0-.713.147-.969.4-.254.255-.4.608-.4.967 0 .361.146.713.4.968.256.255.609.401.968.401.36 0 .711-.146.966-.4.255-.256.401-.608.401-.969 0-.359-.146-.712-.4-.966a1.379 1.379 0 00-.967-.4z" fill="url(#paint1_linear)"/><path d="M41.605 22.123a1.367 1.367 0 100-2.735 1.367 1.367 0 000 2.735z" fill="url(#paint2_linear)"/><path d="M28.396 22.123a1.367 1.367 0 100-2.735 1.367 1.367 0 000 2.735z" fill="url(#paint3_linear)"/></g><defs><linearGradient id="paint0_linear" x1="35" y1="1.8" x2="35" y2="68.2" gradientUnits="userSpaceOnUse"><stop/><stop offset="1" stop-opacity=".34"/></linearGradient><linearGradient id="paint1_linear" x1="65.899" y1="23.868" x2="65.899" y2="26.604" gradientUnits="userSpaceOnUse"><stop/><stop offset="1" stop-opacity=".34"/></linearGradient><linearGradient id="paint2_linear" x1="41.605" y1="19.388" x2="41.605" y2="22.123" gradientUnits="userSpaceOnUse"><stop/><stop offset="1" stop-opacity=".34"/></linearGradient><linearGradient id="paint3_linear" x1="28.396" y1="19.388" x2="28.396" y2="22.123" gradientUnits="userSpaceOnUse"><stop/><stop offset="1" stop-opacity=".34"/></linearGradient><clipPath id="clip0"><path fill="#fff" d="M0 0h70v70H0z"/></clipPath></defs></svg>