<svg width="100" height="100" fill="none" xmlns="http://www.w3.org/2000/svg"><path d="M9.268 39.358a1.465 1.465 0 001.036-2.5L8.417 34.97A18.646 18.646 0 012.92 21.699c0-5.013 1.952-9.726 5.497-13.272A18.645 18.645 0 0121.69 2.93c5.013 0 9.726 1.953 13.271 5.497l6.416 6.416c.572.572 1.5.571 2.071 0l6.416-6.416A18.709 18.709 0 0173.97 6.372a1.465 1.465 0 101.694-2.39A21.703 21.703 0 0047.79 6.356l-5.378 5.379-5.38-5.38A21.557 21.557 0 0021.69 0 21.557 21.557 0 006.345 6.356c-8.46 8.46-8.46 22.226 0 30.686l1.887 1.887c.286.286.661.43 1.036.43zM98.534 60.66H93.95c-2.29 0-4.498.831-6.217 2.343l-17.656 15.51a9.119 9.119 0 01-6.022 2.27H33.612L17.53 77.797a3.649 3.649 0 111.337-7.172l14.198 2.656c.09.017.18.025.27.025h6.822l11.125 3.265a8.089 8.089 0 007-1.049l17.55-11.984a1.465 1.465 0 10-1.652-2.42L56.63 73.104a5.17 5.17 0 01-4.486.668l-.025-.008-14.518-4.26a4.193 4.193 0 01-2.991-4.53 4.162 4.162 0 011.698-2.903 4.162 4.162 0 013.283-.73l11.236 2.194a1.466 1.466 0 001.603-.808c.03-.062 3.027-6.313 7.64-12.462 4.126-5.498 10.417-12.052 16.963-12.052h21.502a1.465 1.465 0 100-2.93H80.052c5.978-7.428 6.455-17.988.91-25.958a1.465 1.465 0 00-2.405 1.673c5.188 7.457 4.284 17.54-2.151 23.974l-.352.351c-12.703.964-23.33 20.344-25.763 25.122l-10.138-1.979a7.156 7.156 0 00-5.57 1.237 7.09 7.09 0 00-.776.658l-18.54-18.54a1.465 1.465 0 10-2.072 2.072l9.586 9.586a6.562 6.562 0 00-3.415.895 6.56 6.56 0 00-3.248 6.134l-.188-.035a6.558 6.558 0 00-5.412 1.404 6.56 6.56 0 00-2.376 5.061 6.569 6.569 0 003.627 5.876 6.58 6.58 0 005.226 7.865L33.21 83.69c.088.017.178.025.267.025h30.578c2.93 0 5.756-1.065 7.956-2.999l17.656-15.512a6.486 6.486 0 014.283-1.614h4.584a1.465 1.465 0 100-2.93zM33.47 70.375l-14.065-2.63a6.559 6.559 0 00-6.394 2.416 3.644 3.644 0 01-1.94-3.225c0-1.088.48-2.11 1.318-2.806a3.638 3.638 0 013-.78l4.769.893a1.465 1.465 0 00.539-2.88l-1.52-.285a3.64 3.64 0 011.663-4.175 3.637 3.637 0 013.088-.275l3.156 1.153 5.066 5.066c-.034.084-.064.17-.094.255h-2.062l-2.435-.456a1.466 1.466 0 00-.539 2.88l2.568.48c.09.017.18.025.27.025h1.813c.128 1.65.692 3.177 1.799 4.344z" fill="#000"/><path d="M34.936 18.986a5.375 5.375 0 00-4.631 6.017 5.377 5.377 0 006.016 4.63 5.375 5.375 0 004.632-6.016 5.374 5.374 0 00-6.017-4.631zm1.008 7.742a2.44 2.44 0 11-.313-4.857c1.205 0 2.257.897 2.416 2.124a2.442 2.442 0 01-2.103 2.733zm11.073-9.314a5.375 5.375 0 00-4.631 6.016 5.334 5.334 0 002.05 3.562 5.328 5.328 0 003.967 1.07 5.375 5.375 0 004.631-6.017 5.376 5.376 0 00-6.017-4.631zm1.008 7.742a2.424 2.424 0 01-1.803-.485 2.422 2.422 0 01-.93-1.619 2.442 2.442 0 012.42-2.753c1.205 0 2.257.897 2.416 2.124a2.441 2.441 0 01-2.103 2.733zM28.14 29.343a5.375 5.375 0 00-4.632 6.017 5.332 5.332 0 002.05 3.562 5.329 5.329 0 003.967 1.07 5.375 5.375 0 004.631-6.017 5.376 5.376 0 00-6.017-4.632zm3.11 5.01a2.442 2.442 0 01-2.104 2.733 2.422 2.422 0 01-1.802-.486 2.422 2.422 0 01-.93-1.618 2.442 2.442 0 012.42-2.754c1.205 0 2.257.897 2.416 2.124zm26.374 1.982a5.334 5.334 0 003.562-2.049 5.335 5.335 0 001.07-3.968 5.334 5.334 0 00-2.05-3.561 5.334 5.334 0 00-3.968-1.07 5.333 5.333 0 00-3.562 2.05 5.335 5.335 0 00-1.069 3.967 5.377 5.377 0 006.017 4.631zm-3.111-5.01a2.422 2.422 0 01.485-1.801 2.422 2.422 0 011.938-.952 2.42 2.42 0 011.483.507c.516.397.847.972.93 1.618a2.422 2.422 0 01-.485 1.802 2.424 2.424 0 01-1.618.931 2.443 2.443 0 01-2.733-2.104zM40.218 51.85a6.897 6.897 0 003.33-.849 4.63 4.63 0 013.337-.433 6.901 6.901 0 003.03.062c3.3-.66 5.69-3.694 5.556-7.055a6.902 6.902 0 00-3.56-5.8c-1.076-.6-1.851-1.545-2.183-2.662a6.947 6.947 0 00-2.851-3.827c-2.854-1.873-6.712-1.358-8.976 1.197a6.923 6.923 0 00-1.749 4.742A4.622 4.622 0 0135 40.36a6.89 6.89 0 00-1.557 6.007c.675 3.19 3.546 5.485 6.775 5.484zm-3.01-9.564a7.545 7.545 0 001.873-5.12 4.002 4.002 0 016.189-3.43 3.96 3.96 0 011.65 2.209h-.001c.55 1.856 1.817 3.416 3.567 4.39 1.232.686 2 1.94 2.057 3.357.077 1.936-1.3 3.684-3.204 4.066-.59.117-1.18.106-1.753-.035a7.553 7.553 0 00-5.444.708 3.992 3.992 0 01-1.69.482 4.012 4.012 0 01-4.142-3.154 3.983 3.983 0 01.898-3.473z" fill="#000"/></svg>