<svg width="20" height="20" fill="none" xmlns="http://www.w3.org/2000/svg"><path d="M14.79 11.367c-1.346-1.625-3.047-2.52-4.79-2.52-1.743 0-3.444.895-4.79 2.52-1.209 1.46-1.93 3.3-1.93 4.923 0 .788.24 1.389.715 1.785.47.39 1.088.523 1.78.523.734 0 1.55-.15 2.352-.297.701-.129 1.363-.25 1.873-.25.44 0 1.061.115 1.718.237 1.536.285 3.277.608 4.282-.228.479-.397.72-.993.72-1.77.001-1.622-.721-3.463-1.93-4.923zm.461 5.792c-.583.485-2.1.203-3.319-.023-.712-.132-1.384-.257-1.932-.257-.617 0-1.33.13-2.084.27-1.17.213-2.625.48-3.17.025-.074-.06-.295-.245-.295-.884 0-1.338.637-2.938 1.662-4.176 1.119-1.35 2.5-2.095 3.887-2.095s2.768.744 3.887 2.095c1.025 1.238 1.662 2.838 1.662 4.176 0 .621-.224.808-.298.869zm-.324-14.614c-.492-.726-1.197-1.142-1.934-1.142-.737 0-1.442.416-1.935 1.142-.452.667-.7 1.542-.7 2.466 0 .923.248 1.799.7 2.465.493.726 1.198 1.143 1.935 1.143.737 0 1.442-.417 1.934-1.143.452-.666.701-1.542.701-2.465 0-.924-.249-1.8-.701-2.466zm-.97 4.274c-.159.234-.496.628-.964.628-.469 0-.806-.394-.965-.628-.317-.468-.5-1.127-.5-1.808 0-.682.183-1.34.5-1.808.16-.235.496-.629.965-.629.468 0 .805.394.964.629.317.467.5 1.126.5 1.808 0 .68-.183 1.34-.5 1.808zM8.942 2.545c-.493-.726-1.198-1.142-1.935-1.142-.737 0-1.442.416-1.934 1.142-.452.667-.701 1.542-.701 2.466 0 .923.249 1.799.701 2.465.492.726 1.197 1.143 1.934 1.143.737 0 1.442-.417 1.935-1.143.452-.666.701-1.542.701-2.465 0-.924-.25-1.8-.701-2.466zm-.97 4.274c-.16.234-.496.628-.965.628-.468 0-.805-.394-.964-.628-.318-.468-.5-1.127-.5-1.808 0-.682.183-1.34.5-1.808.159-.235.496-.629.964-.629.469 0 .806.394.965.629.317.467.499 1.126.499 1.808 0 .68-.182 1.34-.5 1.808zm11.912 1.389c-.199-.675-.624-1.165-1.198-1.381-.462-.173-.984-.144-1.468.083-.669.313-1.215.958-1.499 1.771-.232.665-.26 1.367-.081 1.978.198.675.624 1.165 1.198 1.38.198.075.408.113.62.113.283 0 .572-.066.848-.195.668-.313 1.214-.958 1.498-1.771.232-.665.261-1.367.082-1.978zM18.696 9.8c-.178.51-.51.92-.889 1.097-.139.065-.349.126-.56.047-.506-.19-.704-1.067-.421-1.875.177-.51.51-.92.888-1.097a.84.84 0 01.35-.084c.068 0 .139.01.21.037.507.19.704 1.067.422 1.875zM4.281 8.681c-.284-.813-.83-1.459-1.498-1.771-.485-.227-1.006-.256-1.468-.083-.574.216-1 .706-1.198 1.381-.18.611-.15 1.313.082 1.978.284.813.83 1.458 1.498 1.771a2 2 0 00.847.194c.213 0 .422-.037.621-.111.574-.216 1-.706 1.198-1.381.18-.611.15-1.314-.082-1.978zm-1.528 2.262c-.21.079-.42.018-.56-.047-.378-.177-.71-.587-.888-1.097-.282-.808-.085-1.684.422-1.875.21-.079.42-.018.56.047.378.177.71.587.888 1.097.283.808.085 1.684-.422 1.875z" fill="#FF2F2F"/></svg>