<svg width="100" height="100" fill="none" xmlns="http://www.w3.org/2000/svg"><path d="M86.27 65.104a1.953 1.953 0 00-1.953 1.953c0 14.721-11.977 26.698-26.698 26.698-14.722 0-26.698-11.977-26.698-26.698v-4.099l10.843-19.946c7.788-5.44 11.491-15.242 10.314-27.208 2.756-.907 4.753-3.504 4.753-6.56a6.913 6.913 0 00-6.906-6.905 6.913 6.913 0 00-6.905 6.905c0 3.2 2.188 5.896 5.145 6.677 1.14 10.915-2.163 19.705-9.178 24.257-6.135 3.98-14.15 4.03-20.418.127-7.256-4.518-10.81-13.358-9.873-24.393 2.943-.79 5.115-3.48 5.115-6.668a6.913 6.913 0 00-6.905-6.905A6.913 6.913 0 000 9.244c0 3.068 2.012 5.674 4.785 6.57C3.79 28.256 8.002 38.325 16.5 43.619l10.514 19.34v4.099c0 8.143 3.192 15.82 8.988 21.616 5.797 5.796 13.473 8.988 21.616 8.988 8.144 0 15.82-3.192 21.617-8.988 5.796-5.796 8.988-13.473 8.988-21.616a1.953 1.953 0 00-1.953-1.953zM46.926 9.244a3.002 3.002 0 013-3 3.002 3.002 0 012.998 3 3.003 3.003 0 01-2.999 2.999 3.003 3.003 0 01-2.999-3zm-43.02 0a3.002 3.002 0 013-3 3.002 3.002 0 012.998 3 3.003 3.003 0 01-2.999 2.999 3.003 3.003 0 01-2.999-3zm18.451 36.97c2.075.591 4.214.888 6.351.888 2.36 0 4.715-.364 6.976-1.084l-6.717 12.354-6.61-12.158z" fill="#000"/><path d="M86.27 59.739a1.953 1.953 0 00-1.953 1.953v.027a1.953 1.953 0 103.906 0v-.027a1.953 1.953 0 00-1.953-1.953zm0-34.795c-7.57 0-13.73 6.181-13.73 13.778 0 6.931 5.128 12.681 11.777 13.636v3.93a1.953 1.953 0 103.906 0v-3.93C94.872 51.404 100 45.654 100 38.722c0-7.597-6.16-13.778-13.73-13.778zm0 16.187a2.403 2.403 0 01-2.391-2.409 2.403 2.403 0 012.391-2.41 2.403 2.403 0 012.392 2.41 2.403 2.403 0 01-2.392 2.41zm1.953 7.266v-3.672a6.324 6.324 0 004.345-6.003c0-3.482-2.825-6.315-6.298-6.315-3.472 0-6.298 2.833-6.298 6.315a6.324 6.324 0 004.345 6.003v3.672c-4.484-.913-7.87-4.904-7.87-9.675 0-5.443 4.406-9.871 9.823-9.871 5.417 0 9.824 4.428 9.824 9.871 0 4.771-3.387 8.762-7.87 9.675zM57.619 66.936c-5.743 0-10.415 4.687-10.415 10.449 0 5.761 4.672 10.45 10.415 10.45 5.742 0 10.415-4.688 10.415-10.45s-4.673-10.45-10.415-10.45zm0 16.992c-3.59 0-6.509-2.935-6.509-6.543s2.92-6.543 6.509-6.543c3.589 0 6.508 2.935 6.508 6.543s-2.92 6.543-6.508 6.543zM70.11 56.16c-3.424 0-6.209 2.946-6.209 6.566 0 3.62 2.785 6.565 6.208 6.565 3.424 0 6.21-2.945 6.21-6.565 0-3.62-2.786-6.565-6.21-6.565zm0 9.224c-1.27 0-2.303-1.192-2.303-2.659 0-1.465 1.033-2.658 2.302-2.658 1.27 0 2.303 1.193 2.303 2.658 0 1.467-1.033 2.66-2.303 2.66zM57.756 50.396c-3.423 0-6.208 2.945-6.208 6.565 0 3.62 2.785 6.565 6.208 6.565 3.424 0 6.209-2.945 6.209-6.565 0-3.62-2.785-6.565-6.209-6.565zm0 9.224c-1.269 0-2.302-1.193-2.302-2.659 0-1.466 1.033-2.659 2.302-2.659 1.27 0 2.303 1.193 2.303 2.659 0 1.466-1.033 2.659-2.303 2.659zm-12.628-3.46c-3.423 0-6.209 2.946-6.209 6.566 0 3.62 2.786 6.565 6.209 6.565 3.423 0 6.208-2.945 6.208-6.565 0-3.62-2.785-6.565-6.208-6.565zm0 9.225c-1.27 0-2.302-1.193-2.302-2.66 0-1.465 1.032-2.658 2.302-2.658s2.302 1.193 2.302 2.659c0 1.466-1.033 2.659-2.302 2.659z" fill="#000"/></svg>