<svg width="100" height="100" fill="none" xmlns="http://www.w3.org/2000/svg"><g clip-path="url(#clip0)" fill="#000"><path d="M39.842 58.667c-.31 2.317-1.212 6.15-3.855 8.105l-13.82 2.963A15.035 15.035 0 0010.443 82.42L8.61 96.225A3.333 3.333 0 0011.905 100h76.19a3.33 3.33 0 003.305-3.775L89.558 82.42a15.035 15.035 0 00-11.725-12.685l-13.821-2.96c-2.667-1.975-3.567-5.87-3.864-8.1 5.06-3.468 7.922-9.488 9.522-15.54 4.683-.716 7-3.913 7-9.801a9.519 9.519 0 00-1.02-4.654 21.865 21.865 0 001.033-5.811A3.313 3.313 0 0078.333 20v-3.333a3.333 3.333 0 00-2.785-3.278 18.604 18.604 0 00-4.37-7.9C63.892-1.8 50.667-.166 41.333 1.7 34.128 3.137 31.27.58 31.167.49a1.667 1.667 0 00-2.535.21 29.124 29.124 0 00-4.589 12.788 3.333 3.333 0 00-2.376 3.18V20a3.333 3.333 0 002.223 3.129c.138 1.643.441 3.269.905 4.851a8.654 8.654 0 00-1.462 5.354c0 5.888 2.312 9.085 7 9.801 1.595 6.05 4.454 12.065 9.509 15.532zM13.745 82.862a11.693 11.693 0 019.12-9.867l13.41-2.873 12.058 9.045v17.5H11.905l1.84-13.805zm72.51 0l1.84 13.805H51.667v-17.5l12.058-9.045L77.135 73a11.693 11.693 0 019.12 9.862zM60.695 68.23L50 76.25l-10.695-8.02a16.047 16.047 0 003.632-7.885 19.5 19.5 0 0014.12 0 16.063 16.063 0 003.638 7.886zM50 58.334c-16.935 0-18.32-24.015-18.333-31.56.18-1.163.437-2.312.771-3.44h17.605a8.247 8.247 0 0013.247 0h4.272c.333 1.128.59 2.278.771 3.441-.013 7.547-1.4 31.559-18.333 31.559zM27.733 26.119a22.797 22.797 0 01-.483-2.785h1.728a26.712 26.712 0 00-.573 2.721c-.225.009-.45.03-.672.064zM25 16.667h23.5a8.333 8.333 0 000 3.333H25v-3.333zm26.667 1.667a5 5 0 1110 0 5 5 0 01-10 0zm13.166-1.667H75V20H64.833a8.337 8.337 0 000-3.333zm6.764 9.388c-.082-.518-.257-1.5-.574-2.721h2.31a19.624 19.624 0 01-.461 2.973 5.497 5.497 0 00-1.277-.252h.002zM70.48 39.577a69.084 69.084 0 001.133-10.167c.258.042.502.146.71.304a4.877 4.877 0 011.01 3.62c0 4.101-1.231 5.64-2.855 6.243h.002zM30.49 3.982a17.198 17.198 0 0011.5.985c8.57-1.713 20.667-3.277 26.833 2.878a14.666 14.666 0 013.202 5.489H63.29a8.247 8.247 0 00-13.247 0H27.448a26.95 26.95 0 013.042-9.352zm-3.823 29.352a4.876 4.876 0 011.011-3.629 1.6 1.6 0 01.71-.301 69.07 69.07 0 001.134 10.166c-1.624-.596-2.855-2.135-2.855-6.236z"/><path d="M63.333 86.666c0 .92.746 1.667 1.667 1.667h3.333v3.333a1.667 1.667 0 103.334 0v-3.333H75A1.667 1.667 0 1075 85h-3.333v-3.334a1.667 1.667 0 00-3.334 0V85H65c-.92 0-1.667.746-1.667 1.666zM30 83.333A5.372 5.372 0 0025 89c0 1.618.65 4.333 5 4.333s5-2.715 5-4.333a5.372 5.372 0 00-5-5.667zM30 90c-1.667 0-1.667-.334-1.667-1 0-1.265.764-2.334 1.667-2.334s1.667 1.069 1.667 2.334c0 .666 0 1-1.667 1zm-3.333-8.333a1.667 1.667 0 100-3.334 1.667 1.667 0 000 3.334zM23.333 85a1.667 1.667 0 100-3.333 1.667 1.667 0 000 3.333zm10-3.333a1.667 1.667 0 100-3.334 1.667 1.667 0 000 3.334zM36.667 85a1.667 1.667 0 100-3.333 1.667 1.667 0 000 3.333z"/></g><defs><clipPath id="clip0"><path fill="#fff" d="M0 0h100v100H0z"/></clipPath></defs></svg>